<?xml version="1.0" encoding="UTF-8"?>
<svg id="Layer_2" data-name="Layer 2" xmlns="http://www.w3.org/2000/svg" viewBox="0 0 395.82 440.29">
  <defs>
    <style>
      .cls-1 {
        fill: #b58e47;
      }

      .cls-2 {
        fill: #b58e49;
      }
    </style>
  </defs>
  <line class="cls-2" x1="136.15" y1="284.69" x2="136.2" y2="284.67"/>
  <line class="cls-2" x1="255.39" y1="284.67" x2="255.44" y2="284.69"/>
  <path class="cls-2" d="M313.12,371.86c-6.72-57.67-55.74-102.42-115.21-102.42s-108.49,44.75-115.21,102.42h-16.11c6.83-66.43,63.12-118.42,131.32-118.42s124.49,51.99,131.32,118.42"/>
  <polygon class="cls-2" points="99.07 371.86 99.07 390.76 49.54 390.76 52.84 371.86 99.07 371.86"/>
  <polygon class="cls-2" points="296.76 371.86 296.76 390.76 346.29 390.76 342.99 371.86 296.76 371.86"/>
  <rect class="cls-2" x="127.41" y="204.97" width="141.01" height="16"/>
  <polygon class="cls-2" points="156.34 110.41 239.48 110.41 235.11 127.78 160.72 127.78 156.34 110.41"/>
  <polygon class="cls-2" points="162.93 142.07 232.89 142.07 229.21 159.44 166.61 159.44 162.93 142.07"/>
  <polygon class="cls-2" points="170.27 173.73 225.56 173.73 222.65 191.1 173.18 191.1 170.27 173.73"/>
  <polyline class="cls-2" points="140.38 220.96 140.38 266.66 156.38 260.14 156.38 220.96 239.44 220.96 239.44 260.14 255.44 266.66 255.44 220.96"/>
  <path class="cls-1" d="M199.78,93.14c1.96-.79,8.68-2.56,8.27,1.3-1.29,3.55-10.67,5.38-14.1,5.15,3.47-2.6,7.78-3.98,11.43-6.01,.1-.04,.12-.17,0,.2-.09,.26,.09,.87,.37,.95-1.75-.81-3.9-.86-5.97-1.57h0Z"/>
  <path class="cls-1" d="M199.43,49.53c-4.85,.85-9.77,1.68-14.37,3.41-1.07,.44-2.34,.94-2.89,1.78-.03,.14,.08-.09,.09-.05,3.16,2.75,8.03,3.79,12.07,5.06,7.42,2.23,15.37,3.11,22.21,7.12,2.38,1.44,4.15,4.39,2.63,7.23-1.06,2.11-3.79,3.28-5.53,3.84-2.22,.73-4.27,1.14-6.34,1.52-10.18,1.7-20.2,2.09-30.31,2.34,0,0-2.94,.05-2.94,.05,1.85-.09,2.33-2.45,.92-3.34,5.58,3.48,12.14,4.67,18.7,5.52,5.77,.69,11.62,.81,17.49,.8,3.74,.18,15.16-.53,15.02,5-.07,5.92-21.97,11.15-27.2,12.47,0,0,5.41-2.61,5.41-2.61,5.21-2.58,10.84-5.22,15.48-8.5,.81-.64,1.63-1.19,1.99-1.87,.03-.04-.03,.01-.03,.03-.03,.06-.06,.15-.07,.29-.04,.39,.15,.8,.34,.99-.35-.09-1.27-.3-2.16-.32-4.84-.22-9.69,.54-14.58,.76-8.3,.43-16.6,.18-24.79-1.91-3.43-.89-6.94-2.21-10-4.17-3.21-2.06-3.56-6.95-.7-9.47,1.81-1.86,4.63-1.62,6.94-1.68,0,0,5.92-.2,5.92-.2,7.78-.29,15.72-.65,23.38-1.67,2.36-.35,5.17-.77,7.06-1.69-.16,.21-.45,.65-.49,1.03-.15,.63,.04,1.35,.32,1.64,0,0,0-.01,0-.03l-.1-.09c-2.57-1.95-5.81-2.96-8.89-4.14-5.59-1.88-11.68-3.9-16.98-6.46-2.9-1.57-6.7-3-8.07-6.47-.63-1.71,.71-3.61,2.17-4.26,5.74-2.49,12.26-2.1,18.32-1.98h0Z"/>
</svg>